<svg width="363" height="302" viewBox="0 0 363 302" fill="none" xmlns="http://www.w3.org/2000/svg">
<path d="M284.432 105.778C288.976 111.457 291.968 117.767 295.93 123.721C300.062 121.087 302.528 117.273 305.355 113.912C320.491 95.9193 334.84 77.3626 344.571 55.7275C347.043 50.231 348.831 44.4939 349.87 38.5213C352.803 21.6587 345.303 12.0335 328.182 10.856C316.464 10.0501 305.168 12.5293 293.891 15.2398C291.678 15.7718 291.135 17.2509 290.496 19.0904C287.02 29.0964 278.499 32.6311 269.163 27.7342C266.58 26.3798 264.494 26.7128 262.181 27.7719C250.532 33.1058 238.902 38.4815 227.222 43.7459C225.666 44.4476 224.139 45.9652 222.112 44.91C221.849 43.1709 223.281 42.8325 224.234 42.2124C235.364 34.9648 246.56 27.8195 258.491 21.9319C260.9 20.7434 262.23 19.6361 261.896 16.3816C261.283 10.4044 263.783 5.49315 269.29 2.58923C274.892 -0.364848 281.457 0.276213 286.049 4.75562C288.453 7.10034 290.379 7.23563 293.361 6.27305C304.701 2.61246 316.256 -0.0272076 328.289 0.000211639C331.876 0.00838543 335.383 0.492949 338.833 1.29401C356.18 5.32156 365.043 19.4853 361.953 37.7103C358.617 57.3855 349.067 74.2585 338.304 90.5548C322.211 114.924 302.776 136.386 281.082 156.1C284.466 154.385 287.878 152.72 291.227 150.94C294.745 149.071 298.203 147.091 302.354 144.79C306.605 155.063 307.209 165.519 307.205 175.811C307.194 204.373 297.829 229.782 279.117 251.398C261.208 272.085 238.571 284.855 211.576 289.697C193.603 292.921 175.832 292.411 158.044 286.411C171.142 277.41 183.269 267.661 193.03 254.64C191.039 253.982 189.685 254.626 188.312 255.098C166.909 262.465 144.828 266.618 122.381 269.078C119.952 269.344 118.191 268.311 116.479 266.973C91.5792 247.508 76.3872 222.245 72.651 190.807C67.9342 151.119 79.7777 116.975 109.214 89.5242C128.638 71.4106 151.897 61.6277 178.309 59.2918C214.167 56.1206 245.257 66.9176 271.67 91.2983C276.336 95.6051 280.324 100.53 284.432 105.778Z" fill="#FF7A00"/>
<path d="M4.22789 266.12C-0.992374 252.876 0.682637 240.035 4.64521 227.267C5.42853 224.743 5.58917 222.791 3.70841 220.51C-0.37869 215.552 -1.28611 209.879 1.98552 204.141C5.12586 198.633 10.2558 196.377 16.446 197.008C19.0407 197.273 20.4165 196.274 21.8108 194.381C25.1967 189.783 28.7002 185.27 32.246 180.793C33.2231 179.56 33.9717 177.801 36.4569 178.024C35.631 181.549 32.8575 183.741 31.3099 186.615C30.1409 188.786 28.7785 190.855 27.4465 192.934C25.0471 196.679 23.7672 199.617 27.128 204.352C32.7486 212.269 27.7235 223.257 18.0922 225.296C14.0965 226.142 12.905 228.013 12.2712 231.59C10.183 243.376 10.3703 254.652 18.2865 264.579C18.8609 265.3 19.2907 266.135 19.8809 267.064C25.5428 262.902 30.8742 260.168 37.4414 260.436C47.5135 260.848 56.2532 268.346 57.2365 278.364C57.5851 281.916 59.316 282.561 62.2758 282.877C90.7064 285.909 118.224 281.337 145.357 273.214C156.905 269.757 168.252 265.806 179.219 260.781C180.678 260.112 182.169 259.006 184.017 259.762C184.467 261.621 182.902 262.149 181.925 262.966C163.122 278.689 141.386 288.008 117.452 292.634C97.1813 296.552 76.8419 298.42 56.2692 295.436C53.863 295.087 51.8928 295.627 49.836 297.139C35.7778 307.47 18.9175 300.613 15.9942 283.395C15.6471 281.351 14.5792 280.072 13.2546 278.77C9.5919 275.17 6.44588 271.195 4.22789 266.12Z" fill="#FF7A00"/>
<path d="M286.701 284.814C272.515 286.932 258.704 288.7 244.73 287.182C244.62 284.585 246.385 284.624 247.417 283.882C256.651 277.244 267.291 276.486 278.121 276.496C279.046 276.497 279.97 276.429 280.894 276.382C288.381 276 288.37 275.996 290.369 269.078C292.269 262.5 296.61 258.568 303.364 257.505C309.483 256.541 315.517 259.514 318.663 265.554C320.375 268.839 322.345 269.116 325.374 268.021C332.182 265.557 339.029 263.199 345.874 260.836C347.246 260.362 348.519 259.076 350.187 260.11C350.249 262.141 348.475 262.537 347.279 263.314C340.02 268.035 332.389 272.063 324.23 274.99C321.612 275.929 319.926 277.376 318.588 279.919C314.709 287.294 305.844 290.325 298.854 286.145C294.813 283.728 291.195 283.632 286.701 284.814Z" fill="#FF7A00"/>
</svg>
